<svg width="78" height="78" viewBox="0 0 78 78" fill="none" xmlns="http://www.w3.org/2000/svg">
<rect x="0.389893" width="77.22" height="77.22" rx="38.61" fill="#508DEF" fill-opacity="0.1"/>
<g clip-path="url(#clip0_1_2705)">
<path fill-rule="evenodd" clip-rule="evenodd" d="M57.3266 26.8819C56.9303 26.6885 56.7588 27.0582 56.5279 27.247C56.4483 27.3078 56.3812 27.3874 56.3142 27.4591C55.7338 28.0784 55.0568 28.484 54.1723 28.4357C52.879 28.3639 51.7745 28.7695 50.798 29.7586C50.5905 28.5386 49.901 27.8117 48.8527 27.3437C48.3035 27.1003 47.7482 26.8585 47.3629 26.3297C47.0945 25.9537 47.0212 25.5341 46.8871 25.1222C46.8013 24.8726 46.7155 24.6184 46.43 24.5762C46.118 24.5279 45.9963 24.7884 45.8746 25.0068C45.3863 25.8991 45.1976 26.8819 45.2163 27.8772C45.2584 30.1174 46.2038 31.902 48.0836 33.1703C48.2973 33.3154 48.3519 33.462 48.2848 33.6742C48.1569 34.111 48.004 34.5353 47.8699 34.9736C47.7841 35.2529 47.6561 35.3122 47.3566 35.192C46.3446 34.7571 45.4253 34.1322 44.6485 33.3512C43.3115 32.0596 42.1041 30.6337 40.5971 29.5168C40.248 29.2588 39.8895 29.0137 39.5223 28.782C37.9857 27.2891 39.7251 26.0629 40.1276 25.9178C40.5488 25.765 40.2727 25.2439 38.9123 25.2502C37.552 25.2564 36.3071 25.7104 34.7206 26.3172C34.4849 26.4075 34.2423 26.479 33.9952 26.5309C32.5126 26.2516 30.9964 26.1979 29.4977 26.3718C26.5571 26.6994 24.2093 28.0909 22.4824 30.4637C20.4076 33.3154 19.9193 36.557 20.5168 39.936C21.1455 43.499 22.9645 46.449 25.7584 48.7547C28.6569 51.1462 31.9937 52.3177 35.8017 52.0931C38.1136 51.9605 40.6892 51.65 43.5923 49.1915C44.3255 49.5565 45.0931 49.7016 46.3692 49.8108C47.3519 49.9028 48.2973 49.764 49.0289 49.6111C50.1756 49.3678 50.096 48.3054 49.6826 48.112C46.3208 46.5457 47.0587 47.1838 46.3863 46.6674C48.0961 44.6456 50.6701 42.5459 51.6778 35.7427C51.7558 35.2014 51.6888 34.8613 51.6778 34.4245C51.6716 34.1593 51.7324 34.0548 52.0366 34.0252C52.8806 33.9376 53.6994 33.6859 54.4468 33.2842C56.6246 32.0939 57.5044 30.1408 57.7119 27.7976C57.7431 27.4388 57.7057 27.0707 57.3266 26.8819ZM38.3461 47.97C35.0872 45.4085 33.5069 44.5645 32.8549 44.6004C32.2433 44.6378 32.3541 45.3352 32.4883 45.7907C32.6287 46.24 32.8112 46.5488 33.067 46.9435C33.2449 47.204 33.3665 47.5925 32.8907 47.8842C31.8409 48.5332 30.0172 47.6658 29.9314 47.6237C27.8083 46.3726 26.0314 44.7221 24.7819 42.4648C23.5744 40.2917 22.8724 37.961 22.757 35.4728C22.7258 34.8707 22.9021 34.6585 23.5011 34.5493C24.2875 34.3988 25.0933 34.3783 25.8863 34.4885C29.2123 34.9752 32.0421 36.4619 34.4164 38.8159C35.7705 40.1575 36.7954 41.7596 37.8515 43.3259C38.9747 44.9888 40.1822 46.5738 41.7203 47.8717C42.2632 48.3272 42.6953 48.6736 43.1103 48.9278C41.8592 49.0682 39.7719 49.0994 38.3461 47.97ZM39.9061 37.9236C39.9058 37.8461 39.9244 37.7697 39.9603 37.701C39.9961 37.6323 40.0482 37.5734 40.1119 37.5293C40.1756 37.4852 40.2491 37.4573 40.3261 37.448C40.403 37.4387 40.4811 37.4483 40.5535 37.4759C40.6458 37.509 40.7254 37.5701 40.7813 37.6506C40.8373 37.7311 40.8667 37.8271 40.8655 37.9252C40.8657 37.9885 40.8533 38.0513 40.829 38.1098C40.8047 38.1683 40.769 38.2214 40.724 38.2659C40.679 38.3105 40.6256 38.3457 40.5668 38.3694C40.5081 38.3931 40.4452 38.4049 40.3819 38.4041C40.319 38.4043 40.2567 38.392 40.1987 38.3678C40.1406 38.3437 40.088 38.3082 40.0438 38.2634C39.9997 38.2187 39.9649 38.1656 39.9415 38.1072C39.9181 38.0489 39.905 37.9865 39.9061 37.9236ZM44.7577 40.4134C44.4457 40.5397 44.1352 40.6489 43.8373 40.663C43.389 40.6786 42.9491 40.5386 42.5924 40.2667C42.1649 39.9079 41.8592 39.7082 41.7313 39.0842C41.6872 38.7793 41.6956 38.469 41.7562 38.167C41.8654 37.6568 41.7437 37.3292 41.3834 37.0328C41.0917 36.7895 40.7188 36.7224 40.3101 36.7224C40.1702 36.7143 40.0342 36.6725 39.9139 36.6007C39.7423 36.5165 39.6019 36.3043 39.736 36.0422C39.7797 35.958 39.9856 35.7521 40.0355 35.7146C40.5909 35.3995 41.2321 35.5025 41.8233 35.7396C42.3724 35.9642 42.7874 36.3761 43.3849 36.9595C43.9948 37.6631 44.1056 37.8581 44.4535 38.3854C44.728 38.7988 44.9776 39.2231 45.1477 39.7082C45.2522 40.0124 45.118 40.2605 44.7577 40.4134Z" fill="#306FC7"/>
</g>
<defs>
<clipPath id="clip0_1_2705">
<rect width="37.44" height="37.44" fill="white" transform="translate(20.2798 19.89)"/>
</clipPath>
</defs>
</svg>
