<svg width="24" height="24" viewBox="0 0 24 24" fill="none" xmlns="http://www.w3.org/2000/svg">
<path fill-rule="evenodd" clip-rule="evenodd" d="M10.5968 0.0726711C10.2815 0.129592 9.8393 0.302545 9.6138 0.457984C9.38831 0.615611 7.38731 2.53998 5.16958 4.73802C0.493283 9.36834 0.491094 9.37271 0.493283 11.0672C0.493283 12.059 0.530501 12.2363 0.847945 12.7858C1.0406 13.1208 2.11554 14.3227 3.23426 15.4523C4.35298 16.5842 5.28998 17.5672 5.31188 17.6372C5.33596 17.7073 4.18221 18.9355 2.75042 20.3629C1.31645 21.7925 0.0970235 23.0842 0.0401026 23.2374C-0.0365221 23.4366 -0.00587253 23.5877 0.153944 23.7825C0.366305 24.0431 0.401333 24.0474 1.5923 23.9117C2.26222 23.8351 3.613 23.7147 4.5938 23.6424C5.57459 23.5702 7.01295 23.4607 7.79014 23.3994C9.54813 23.2593 14.1587 23.2593 15.9627 23.3994C16.7071 23.4585 18.1432 23.568 19.159 23.6424C20.1727 23.719 21.3527 23.8373 21.784 23.9051C22.4342 24.008 22.6137 23.9971 22.8589 23.8351C23.0209 23.73 23.1523 23.5527 23.1523 23.4432C23.1523 23.3315 21.9329 22.0114 20.4398 20.5074C18.0732 18.1211 17.7426 17.7423 17.8542 17.5365C17.9243 17.4052 18.916 16.3631 20.0588 15.2181C21.6307 13.6418 22.1737 13.0179 22.2897 12.6523C22.3751 12.3873 22.4933 12.1159 22.5524 12.0524C22.6115 11.9889 22.6619 11.5598 22.6619 11.1022C22.6619 10.4258 22.5896 10.1149 22.2853 9.47123C21.9504 8.76629 21.4687 8.24086 17.9528 4.74896C15.7766 2.58815 13.7472 0.659397 13.4428 0.460173C12.8189 0.055157 11.6236 -0.106849 10.5968 0.0726711ZM7.01076 9.97915C6.8378 10.1521 6.9407 11.1219 7.19466 11.6933C7.58654 12.5778 7.91493 13.0047 8.75561 13.7184C8.84756 13.7972 9.17814 13.9987 9.4934 14.1672C10.0079 14.4453 10.2049 14.4759 11.5382 14.4803C12.9853 14.4847 13.0269 14.4781 13.7253 14.0797C14.96 13.3769 15.735 12.4027 16.0481 11.157C16.2145 10.498 16.2167 10.3688 16.0634 10.1499C15.8905 9.90471 15.781 9.89814 11.49 9.89814C9.07087 9.89814 7.05673 9.93536 7.01076 9.97915Z" fill="#306FC7"/>
</svg>
