<svg width="108" height="24" viewBox="0 0 108 24" fill="none" xmlns="http://www.w3.org/2000/svg">
<g clip-path="url(#clip0_36_3409)">
<path d="M22.5 9H22V8C22 5.243 19.757 3 17 3H13V1C13 0.448 12.553 0 12 0C11.447 0 11 0.448 11 1V3H7C4.243 3 2 5.243 2 8V9H1.5C0.673 9 0 9.673 0 10.5V13.5C0 14.327 0.673 15 1.5 15H2V16C2 18.757 4.243 21 7 21H14.697L18.66 23.642C19.02 23.882 19.435 24.003 19.851 24.003C20.199 24.003 20.547 23.919 20.866 23.748C21.565 23.373 22 22.648 22 21.854V14.999H22.5C23.327 14.999 24 14.326 24 13.499V10.499C24 9.672 23.327 8.999 22.5 8.999V9ZM20 21.855C20 21.877 20 21.944 19.922 21.985C19.842 22.028 19.786 21.989 19.77 21.978L15.555 19.168C15.391 19.059 15.198 19 15 19H7C5.346 19 4 17.654 4 16V8C4 6.346 5.346 5 7 5H17C18.654 5 20 6.346 20 8V21.855ZM7 9.5C7 8.672 7.672 8 8.5 8C9.328 8 10 8.672 10 9.5C10 10.328 9.328 11 8.5 11C7.672 11 7 10.328 7 9.5ZM17 9.5C17 10.328 16.328 11 15.5 11C14.672 11 14 10.328 14 9.5C14 8.672 14.672 8 15.5 8C16.328 8 17 8.672 17 9.5ZM16.847 14.195C17.141 14.663 16.999 15.28 16.532 15.573C15.495 16.224 13.866 17 12.001 17C10.136 17 8.507 16.224 7.47 15.573C7.002 15.28 6.861 14.662 7.155 14.195C7.449 13.728 8.066 13.586 8.533 13.879C9.348 14.391 10.612 15 12.002 15C13.392 15 14.655 14.391 15.471 13.879C15.937 13.585 16.556 13.727 16.849 14.195H16.847Z" fill="black"/>
</g>
<path d="M32.397 17.636C32.0457 17.636 31.7737 17.5397 31.581 17.347C31.3997 17.143 31.309 16.8653 31.309 16.514V6.501C31.309 6.13833 31.3997 5.86067 31.581 5.668C31.7737 5.47533 32.0457 5.379 32.397 5.379C32.7483 5.379 33.0147 5.47533 33.196 5.668C33.3887 5.86067 33.485 6.13833 33.485 6.501V10.513H39.656V6.501C39.656 6.13833 39.7467 5.86067 39.928 5.668C40.1207 5.47533 40.3927 5.379 40.744 5.379C41.0953 5.379 41.3617 5.47533 41.543 5.668C41.7357 5.86067 41.832 6.13833 41.832 6.501V16.514C41.832 16.8653 41.7357 17.143 41.543 17.347C41.3617 17.5397 41.0953 17.636 40.744 17.636C40.3927 17.636 40.1207 17.5397 39.928 17.347C39.7467 17.143 39.656 16.8653 39.656 16.514V12.332H33.485V16.514C33.485 16.8653 33.3943 17.143 33.213 17.347C33.0317 17.5397 32.7597 17.636 32.397 17.636ZM45.3074 17.619C44.9674 17.619 44.7068 17.517 44.5254 17.313C44.3441 17.109 44.2534 16.8257 44.2534 16.463V10.224C44.2534 9.85 44.3441 9.56667 44.5254 9.374C44.7068 9.17 44.9674 9.068 45.3074 9.068C45.6474 9.068 45.9081 9.17 46.0894 9.374C46.2821 9.56667 46.3784 9.85 46.3784 10.224V16.463C46.3784 16.8257 46.2878 17.109 46.1064 17.313C45.9251 17.517 45.6588 17.619 45.3074 17.619ZM45.3074 7.487C44.9108 7.487 44.5991 7.39067 44.3724 7.198C44.1571 6.994 44.0494 6.71633 44.0494 6.365C44.0494 6.00233 44.1571 5.72467 44.3724 5.532C44.5991 5.33933 44.9108 5.243 45.3074 5.243C45.7154 5.243 46.0271 5.33933 46.2424 5.532C46.4578 5.72467 46.5654 6.00233 46.5654 6.365C46.5654 6.71633 46.4578 6.994 46.2424 7.198C46.0271 7.39067 45.7154 7.487 45.3074 7.487ZM49.6404 17.619C49.3004 17.619 49.0398 17.517 48.8584 17.313C48.6771 17.109 48.5864 16.8257 48.5864 16.463V10.224C48.5864 9.85 48.6771 9.56667 48.8584 9.374C49.0398 9.17 49.3004 9.068 49.6404 9.068C49.9804 9.068 50.2411 9.17 50.4224 9.374C50.6151 9.56667 50.7114 9.85 50.7114 10.224V16.463C50.7114 16.8257 50.6208 17.109 50.4394 17.313C50.2581 17.517 49.9918 17.619 49.6404 17.619ZM49.6404 7.487C49.2438 7.487 48.9321 7.39067 48.7054 7.198C48.4901 6.994 48.3824 6.71633 48.3824 6.365C48.3824 6.00233 48.4901 5.72467 48.7054 5.532C48.9321 5.33933 49.2438 5.243 49.6404 5.243C50.0484 5.243 50.3601 5.33933 50.5754 5.532C50.7908 5.72467 50.8984 6.00233 50.8984 6.365C50.8984 6.71633 50.7908 6.994 50.5754 7.198C50.3601 7.39067 50.0484 7.487 49.6404 7.487ZM55.9285 17.67C55.2371 17.67 54.6648 17.5453 54.2115 17.296C53.7581 17.0353 53.4181 16.65 53.1915 16.14C52.9761 15.63 52.8685 14.9953 52.8685 14.236V10.122C52.8685 9.75933 52.9591 9.493 53.1405 9.323C53.3218 9.14167 53.5825 9.051 53.9225 9.051C54.2625 9.051 54.5231 9.14167 54.7045 9.323C54.8971 9.493 54.9935 9.75933 54.9935 10.122V14.27C54.9935 14.8593 55.1125 15.2957 55.3505 15.579C55.5885 15.8623 55.9681 16.004 56.4895 16.004C57.0561 16.004 57.5208 15.8113 57.8835 15.426C58.2461 15.0293 58.4275 14.508 58.4275 13.862V10.122C58.4275 9.75933 58.5181 9.493 58.6995 9.323C58.8808 9.14167 59.1415 9.051 59.4815 9.051C59.8215 9.051 60.0821 9.14167 60.2635 9.323C60.4561 9.493 60.5525 9.75933 60.5525 10.122V16.548C60.5525 17.2733 60.2068 17.636 59.5155 17.636C59.1868 17.636 58.9318 17.5453 58.7505 17.364C58.5691 17.1713 58.4785 16.8993 58.4785 16.548V15.256L58.7165 15.766C58.4785 16.378 58.1158 16.8483 57.6285 17.177C57.1525 17.5057 56.5858 17.67 55.9285 17.67ZM63.8522 17.636C63.5122 17.636 63.2515 17.5453 63.0702 17.364C62.8888 17.1713 62.7982 16.8993 62.7982 16.548V10.122C62.7982 9.77067 62.8888 9.50433 63.0702 9.323C63.2515 9.14167 63.5065 9.051 63.8352 9.051C64.1638 9.051 64.4188 9.14167 64.6002 9.323C64.7815 9.50433 64.8722 9.77067 64.8722 10.122V11.363L64.6852 10.853C64.9118 10.2863 65.2632 9.83867 65.7392 9.51C66.2152 9.18133 66.7818 9.017 67.4392 9.017C68.1078 9.017 68.6575 9.17567 69.0882 9.493C69.5188 9.81033 69.8192 10.2977 69.9892 10.955H69.7512C69.9778 10.3543 70.3518 9.884 70.8732 9.544C71.3945 9.19267 71.9952 9.017 72.6752 9.017C73.3098 9.017 73.8312 9.14167 74.2392 9.391C74.6585 9.64033 74.9702 10.02 75.1742 10.53C75.3782 11.0287 75.4802 11.6633 75.4802 12.434V16.548C75.4802 16.8993 75.3838 17.1713 75.1912 17.364C75.0098 17.5453 74.7492 17.636 74.4092 17.636C74.0692 17.636 73.8085 17.5453 73.6272 17.364C73.4458 17.1713 73.3552 16.8993 73.3552 16.548V12.519C73.3552 11.8843 73.2475 11.4197 73.0322 11.125C72.8282 10.8303 72.4768 10.683 71.9782 10.683C71.4228 10.683 70.9865 10.8813 70.6692 11.278C70.3518 11.6633 70.1932 12.2017 70.1932 12.893V16.548C70.1932 16.8993 70.1025 17.1713 69.9212 17.364C69.7398 17.5453 69.4792 17.636 69.1392 17.636C68.7992 17.636 68.5328 17.5453 68.3402 17.364C68.1588 17.1713 68.0682 16.8993 68.0682 16.548V12.519C68.0682 11.8843 67.9605 11.4197 67.7452 11.125C67.5412 10.8303 67.1955 10.683 66.7082 10.683C66.1528 10.683 65.7165 10.8813 65.3992 11.278C65.0818 11.6633 64.9232 12.2017 64.9232 12.893V16.548C64.9232 17.2733 64.5662 17.636 63.8522 17.636ZM80.4094 17.67C79.8087 17.67 79.2704 17.5567 78.7944 17.33C78.3297 17.092 77.9614 16.7747 77.6894 16.378C77.4287 15.9813 77.2984 15.5337 77.2984 15.035C77.2984 14.423 77.457 13.9413 77.7744 13.59C78.0917 13.2273 78.6074 12.9667 79.3214 12.808C80.0354 12.6493 80.993 12.57 82.1944 12.57H83.0444V13.794H82.2114C81.5087 13.794 80.9477 13.828 80.5284 13.896C80.109 13.964 79.8087 14.083 79.6274 14.253C79.4574 14.4117 79.3724 14.6383 79.3724 14.933C79.3724 15.307 79.5027 15.613 79.7634 15.851C80.024 16.089 80.3867 16.208 80.8514 16.208C81.2254 16.208 81.554 16.123 81.8374 15.953C82.132 15.7717 82.3644 15.528 82.5344 15.222C82.7044 14.916 82.7894 14.5647 82.7894 14.168V12.213C82.7894 11.6463 82.6647 11.2383 82.4154 10.989C82.166 10.7397 81.7467 10.615 81.1574 10.615C80.8287 10.615 80.4717 10.6547 80.0864 10.734C79.7124 10.8133 79.3157 10.9493 78.8964 11.142C78.681 11.244 78.4884 11.2723 78.3184 11.227C78.1597 11.1817 78.035 11.091 77.9444 10.955C77.8537 10.8077 77.8084 10.649 77.8084 10.479C77.8084 10.309 77.8537 10.1447 77.9444 9.986C78.035 9.816 78.188 9.69133 78.4034 9.612C78.9247 9.39667 79.4234 9.24367 79.8994 9.153C80.3867 9.06233 80.8287 9.017 81.2254 9.017C82.0414 9.017 82.71 9.14167 83.2314 9.391C83.764 9.64033 84.1607 10.02 84.4214 10.53C84.682 11.0287 84.8124 11.6747 84.8124 12.468V16.548C84.8124 16.8993 84.7274 17.1713 84.5574 17.364C84.3874 17.5453 84.1437 17.636 83.8264 17.636C83.509 17.636 83.2597 17.5453 83.0784 17.364C82.9084 17.1713 82.8234 16.8993 82.8234 16.548V15.732H82.9594C82.88 16.1287 82.7214 16.4743 82.4834 16.769C82.2567 17.0523 81.9677 17.2733 81.6164 17.432C81.265 17.5907 80.8627 17.67 80.4094 17.67ZM91.9075 17.636C91.6355 17.636 91.4145 17.5737 91.2445 17.449C91.0858 17.3243 90.9895 17.16 90.9555 16.956C90.9215 16.7407 90.9612 16.5027 91.0745 16.242L95.5625 6.297C95.7098 5.96833 95.8855 5.736 96.0895 5.6C96.3048 5.45267 96.5485 5.379 96.8205 5.379C97.0812 5.379 97.3135 5.45267 97.5175 5.6C97.7328 5.736 97.9142 5.96833 98.0615 6.297L102.566 16.242C102.691 16.5027 102.736 16.7407 102.702 16.956C102.668 17.1713 102.572 17.3413 102.413 17.466C102.255 17.5793 102.045 17.636 101.784 17.636C101.467 17.636 101.218 17.5623 101.036 17.415C100.866 17.2563 100.713 17.0183 100.577 16.701L99.4725 14.134L100.39 14.729H93.2165L94.1345 14.134L93.0465 16.701C92.8992 17.0297 92.7462 17.2677 92.5875 17.415C92.4288 17.5623 92.2022 17.636 91.9075 17.636ZM96.7865 7.878L94.4065 13.539L93.9645 12.995H99.6425L99.2175 13.539L96.8205 7.878H96.7865ZM105.289 17.619C104.949 17.619 104.688 17.517 104.507 17.313C104.326 17.109 104.235 16.8257 104.235 16.463V10.224C104.235 9.85 104.326 9.56667 104.507 9.374C104.688 9.17 104.949 9.068 105.289 9.068C105.629 9.068 105.89 9.17 106.071 9.374C106.264 9.56667 106.36 9.85 106.36 10.224V16.463C106.36 16.8257 106.269 17.109 106.088 17.313C105.907 17.517 105.64 17.619 105.289 17.619ZM105.289 7.487C104.892 7.487 104.581 7.39067 104.354 7.198C104.139 6.994 104.031 6.71633 104.031 6.365C104.031 6.00233 104.139 5.72467 104.354 5.532C104.581 5.33933 104.892 5.243 105.289 5.243C105.697 5.243 106.009 5.33933 106.224 5.532C106.439 5.72467 106.547 6.00233 106.547 6.365C106.547 6.71633 106.439 6.994 106.224 7.198C106.009 7.39067 105.697 7.487 105.289 7.487Z" fill="black"/>
<defs>
<clipPath id="clip0_36_3409">
<rect width="24" height="24" fill="white"/>
</clipPath>
</defs>
</svg>
