<svg width="20" height="20" viewBox="0 0 20 20" fill="none" xmlns="http://www.w3.org/2000/svg">
<path d="M13.1998 5.19999L6.46858 12.0688C6.16846 12.3689 5.99985 12.776 5.99985 13.2004C5.99985 13.6248 6.16846 14.0319 6.46858 14.332C6.7687 14.6321 7.17575 14.8007 7.60018 14.8007C8.02461 14.8007 8.43166 14.6321 8.73178 14.332L15.463 7.46319C16.0631 6.86306 16.4003 6.0491 16.4003 5.20039C16.4003 4.35167 16.0631 3.53772 15.463 2.93759C14.8628 2.33746 14.0489 2.00031 13.2002 2.00031C12.3515 2.00031 11.5375 2.33746 10.9374 2.93759L4.23418 9.77839C3.7825 10.2228 3.42327 10.7522 3.17722 11.3361C2.93117 11.92 2.80316 12.5469 2.80058 13.1805C2.798 13.8141 2.9209 14.442 3.16218 15.0279C3.40347 15.6138 3.75838 16.1461 4.20642 16.5941C4.65447 17.0422 5.1868 17.3971 5.77269 17.6384C6.35858 17.8797 6.98645 18.0026 7.62008 18C8.25371 17.9974 8.88056 17.8694 9.46447 17.6233C10.0484 17.3773 10.5778 17.0181 11.0222 16.5664L17.7254 9.72559" stroke="#6A7381" stroke-width="1.6" stroke-linecap="round" stroke-linejoin="round"/>
</svg>
