<svg width="20" height="20" viewBox="0 0 20 20" fill="none" xmlns="http://www.w3.org/2000/svg">
<g clip-path="url(#clip0_12_676)">
<path d="M8.6 17.2H15.4C15.8243 17.2 16.2313 17.0315 16.5314 16.7314C16.8314 16.4314 17 16.0244 17 15.6V4.40005C17 3.9757 16.8314 3.56874 16.5314 3.26868C16.2313 2.96862 15.8243 2.80005 15.4 2.80005H4.2C3.77565 2.80005 3.36869 2.96862 3.06863 3.26868C2.76857 3.56874 2.6 3.9757 2.6 4.40005V11.08L4.76 9.93125C5.28 9.64005 5.78638 9.46066 6.2079 9.46275C6.62943 9.46485 7.0331 9.63321 7.3312 9.93125L14.6 17.2" stroke="#6A7381" stroke-width="1.6" stroke-linecap="round" stroke-linejoin="round"/>
<path d="M12.1999 9.2C11.3163 9.2 10.5999 8.48366 10.5999 7.6C10.5999 6.71634 11.3163 6 12.1999 6C13.0836 6 13.7999 6.71634 13.7999 7.6C13.7999 8.48366 13.0836 9.2 12.1999 9.2Z" stroke="#6A7381" stroke-width="1.6" stroke-linecap="round" stroke-linejoin="round"/>
<path d="M5.50532 16.9445C5.52267 16.8772 5.55774 16.8158 5.60687 16.7667C5.656 16.7175 5.71739 16.6825 5.78467 16.6651L6.97731 16.3576C6.99766 16.3518 7.01557 16.3395 7.02832 16.3227C7.04107 16.3058 7.04797 16.2852 7.04797 16.2641C7.04797 16.2429 7.04107 16.2223 7.02832 16.2055C7.01557 16.1886 6.99766 16.1763 6.97731 16.1705L5.78467 15.8628C5.71742 15.8455 5.65604 15.8104 5.60691 15.7613C5.55778 15.7123 5.5227 15.6509 5.50532 15.5837L5.19778 14.391C5.19206 14.3706 5.17982 14.3526 5.16292 14.3398C5.14602 14.3269 5.12539 14.32 5.10417 14.32C5.08296 14.32 5.06233 14.3269 5.04543 14.3398C5.02853 14.3526 5.01629 14.3706 5.01057 14.391L4.70322 15.5837C4.68587 15.6509 4.6508 15.7123 4.60167 15.7615C4.55254 15.8106 4.49115 15.8457 4.42387 15.863L3.23123 16.1704C3.21072 16.176 3.19263 16.1882 3.17974 16.2052C3.16685 16.2221 3.15987 16.2428 3.15987 16.2641C3.15987 16.2853 3.16685 16.306 3.17974 16.3229C3.19263 16.3399 3.21072 16.3521 3.23123 16.3578L4.42387 16.6651C4.49115 16.6825 4.55254 16.7175 4.60167 16.7667C4.6508 16.8158 4.68587 16.8772 4.70322 16.9445L5.01076 18.1371C5.01648 18.1575 5.02872 18.1755 5.04562 18.1883C5.06252 18.2012 5.08315 18.2081 5.10437 18.2081C5.12558 18.2081 5.14621 18.2012 5.16311 18.1883C5.18001 18.1755 5.19225 18.1575 5.19797 18.1371L5.50532 16.9445Z" fill="#6A7381" stroke="#6A7381" stroke-width="0.56" stroke-linecap="round" stroke-linejoin="round"/>
<path d="M2.62696 14.6302C2.63959 14.5812 2.66511 14.5365 2.70087 14.5008C2.73663 14.465 2.78132 14.4395 2.83028 14.4269L3.69833 14.203C3.71314 14.1988 3.72617 14.1899 3.73545 14.1776C3.74473 14.1653 3.74976 14.1504 3.74976 14.135C3.74976 14.1196 3.74473 14.1046 3.73545 14.0923C3.72617 14.08 3.71314 14.0711 3.69833 14.0669L2.83028 13.8429C2.78133 13.8303 2.73666 13.8048 2.7009 13.7691C2.66515 13.7334 2.63961 13.6887 2.62696 13.6398L2.40312 12.7717C2.39896 12.7568 2.39005 12.7437 2.37775 12.7344C2.36545 12.7251 2.35043 12.72 2.33499 12.72C2.31955 12.72 2.30454 12.7251 2.29224 12.7344C2.27994 12.7437 2.27103 12.7568 2.26686 12.7717L2.04317 13.6398C2.03054 13.6887 2.00501 13.7334 1.96925 13.7692C1.9335 13.8049 1.88881 13.8304 1.83984 13.8431L0.971798 14.0668C0.956871 14.0709 0.943707 14.0798 0.934326 14.0921C0.924945 14.1044 0.919864 14.1195 0.919864 14.135C0.919864 14.1505 0.924945 14.1655 0.934326 14.1778C0.943707 14.1902 0.956871 14.1991 0.971798 14.2032L1.83984 14.4269C1.88881 14.4395 1.9335 14.465 1.96925 14.5008C2.00501 14.5365 2.03054 14.5812 2.04317 14.6302L2.26701 15.4982C2.27117 15.5131 2.28008 15.5262 2.29238 15.5355C2.30468 15.5449 2.31969 15.5499 2.33513 15.5499C2.35057 15.5499 2.36559 15.5449 2.37789 15.5355C2.39019 15.5262 2.3991 15.5131 2.40326 15.4982L2.62696 14.6302Z" fill="#6A7381" stroke="#6A7381" stroke-width="0.48" stroke-linecap="round" stroke-linejoin="round"/>
</g>
<defs>
<clipPath id="clip0_12_676">
<rect width="19.2" height="19.2" fill="white" transform="matrix(-1 0 0 1 19.4 0.400024)"/>
</clipPath>
</defs>
</svg>
