<svg width="65" height="66" viewBox="0 0 65 66" fill="none" xmlns="http://www.w3.org/2000/svg">
<path d="M60.8501 24.7H59.5001V22C59.5001 14.5561 53.444 8.49999 46.0001 8.49999H35.2001V3.09999C35.2001 1.60959 33.9932 0.399994 32.5001 0.399994C31.007 0.399994 29.8001 1.60959 29.8001 3.09999V8.49999H19.0001C11.5562 8.49999 5.5001 14.5561 5.5001 22V24.7H4.1501C1.9172 24.7 0.100098 26.5171 0.100098 28.75V36.85C0.100098 39.0829 1.9172 40.9 4.1501 40.9H5.5001V43.6C5.5001 51.0439 11.5562 57.1 19.0001 57.1H39.782L50.4821 64.2334C51.4541 64.8814 52.5746 65.2081 53.6978 65.2081C54.6374 65.2081 55.577 64.9813 56.4383 64.5196C58.3256 63.5071 59.5001 61.5496 59.5001 59.4058V40.8973H60.8501C63.083 40.8973 64.9001 39.0802 64.9001 36.8473V28.7473C64.9001 26.5144 63.083 24.6973 60.8501 24.6973V24.7ZM54.1001 59.4085C54.1001 59.4679 54.1001 59.6488 53.8895 59.7595C53.6735 59.8756 53.5223 59.7703 53.4791 59.7406L42.0986 52.1536C41.6558 51.8593 41.1347 51.7 40.6001 51.7H19.0001C14.5343 51.7 10.9001 48.0658 10.9001 43.6V22C10.9001 17.5342 14.5343 13.9 19.0001 13.9H46.0001C50.4659 13.9 54.1001 17.5342 54.1001 22V59.4085ZM19.0001 26.05C19.0001 23.8144 20.8145 22 23.0501 22C25.2857 22 27.1001 23.8144 27.1001 26.05C27.1001 28.2856 25.2857 30.1 23.0501 30.1C20.8145 30.1 19.0001 28.2856 19.0001 26.05ZM46.0001 26.05C46.0001 28.2856 44.1857 30.1 41.9501 30.1C39.7145 30.1 37.9001 28.2856 37.9001 26.05C37.9001 23.8144 39.7145 22 41.9501 22C44.1857 22 46.0001 23.8144 46.0001 26.05ZM45.587 38.7265C46.3808 39.9901 45.9974 41.656 44.7365 42.4471C41.9366 44.2048 37.5383 46.3 32.5028 46.3C27.4673 46.3 23.069 44.2048 20.2691 42.4471C19.0055 41.656 18.6248 39.9874 19.4186 38.7265C20.2124 37.4656 21.8783 37.0822 23.1392 37.8733C25.3397 39.2557 28.7525 40.9 32.5055 40.9C36.2585 40.9 39.6686 39.2557 41.8718 37.8733C43.13 37.0795 44.8013 37.4629 45.5924 38.7265H45.587Z" fill="#306FC7"/>
</svg>
